<?xml version="1.0" standalone="no"?>
<!DOCTYPE svg PUBLIC "-//W3C//DTD SVG 20010904//EN"
 "http://www.w3.org/TR/2001/REC-SVG-20010904/DTD/svg10.dtd">
<svg version="1.0" xmlns="http://www.w3.org/2000/svg"
 width="1929.000000pt" height="1929.000000pt" viewBox="0 0 1929.000000 1929.000000"
 preserveAspectRatio="xMidYMid meet">
<metadata>
Created by potrace 1.11, written by Peter Selinger 2001-2013
</metadata>
<g transform="translate(0.000000,1929.000000) scale(0.100000,-0.100000)"
fill="#000000" stroke="none">
<path d="M9325 16174 c-22 -2 -107 -8 -190 -14 -1634 -120 -3224 -881 -4326
-2073 -67 -72 -150 -162 -185 -199 -82 -88 -229 -272 -348 -435 -488 -668
-850 -1423 -1070 -2228 l-41 -150 -27 52 c-17 34 -21 50 -12 46 9 -3 19 7 29
31 19 44 19 67 1 60 -18 -7 -38 14 -78 81 -40 67 -56 74 -86 40 -19 -23 -22
-34 -16 -71 3 -25 2 -50 -4 -57 -5 -6 -13 -29 -16 -51 -6 -32 -5 -38 7 -33 20
7 46 -22 77 -86 20 -41 34 -56 67 -72 23 -11 40 -25 38 -32 -14 -42 -78 -398
-99 -553 -45 -338 -51 -442 -50 -900 0 -465 7 -577 60 -944 23 -159 43 -267
99 -526 15 -69 52 -208 62 -237 4 -9 -7 -13 -35 -13 -23 0 -73 -12 -112 -26
l-71 -27 -30 22 -29 22 0 -34 c0 -44 -14 -60 -80 -95 -60 -32 -83 -70 -36 -58
14 3 73 27 131 51 58 25 106 45 109 45 2 0 36 18 76 40 40 22 76 40 80 40 4 0
12 -25 19 -57 11 -58 4 -83 -25 -83 -14 0 -18 12 -15 38 4 29 -21 8 -44 -37
-29 -58 -49 -73 -82 -60 -24 9 -28 3 -17 -25 4 -9 18 -16 35 -16 35 0 49 -23
38 -64 -13 -46 -43 -66 -100 -66 -68 0 -101 17 -97 49 3 23 9 27 48 31 40 4
45 8 48 33 4 34 -13 42 -74 32 -80 -12 -143 -84 -146 -170 -2 -34 -6 -45 -18
-45 -9 0 -29 -14 -45 -30 -31 -32 -53 -38 -73 -18 -18 18 -14 50 8 78 11 14
20 35 20 48 0 29 -37 30 -74 1 -22 -17 -26 -28 -26 -70 0 -58 -1 -59 -129
-148 -91 -63 -141 -118 -141 -153 0 -10 6 -18 13 -18 26 0 138 40 294 104 156
63 339 123 349 113 2 -2 0 -17 -6 -32 -10 -26 -8 -31 20 -53 24 -19 30 -31 30
-62 0 -43 -17 -53 -102 -65 -53 -7 -78 -31 -78 -77 0 -38 32 -37 67 2 29 33
45 37 62 16 10 -12 8 -16 -11 -21 -13 -4 -75 -61 -140 -125 -120 -122 -161
-148 -217 -137 -28 6 -28 6 -23 -43 4 -45 2 -52 -27 -81 -27 -27 -37 -30 -74
-27 -23 3 -49 8 -57 11 -12 6 -15 -2 -16 -40 -2 -88 -41 -140 -174 -236 -100
-71 -156 -122 -176 -159 -18 -35 -18 -38 6 -38 32 0 23 -17 -16 -30 -30 -10
-38 -9 -54 5 -24 22 -50 13 -50 -18 0 -30 -10 -40 -27 -26 -14 13 -43 -4 -43
-25 0 -6 -295 -134 -655 -285 -360 -151 -654 -276 -652 -277 2 -2 170 62 375
143 l371 146 27 -32 c39 -47 74 -61 149 -61 72 0 112 -15 143 -55 11 -14 23
-25 27 -25 4 0 20 14 36 31 l29 31 -15 90 c-9 49 -21 100 -27 114 -15 31 -25
29 -173 -36 -108 -47 -191 -73 -170 -52 15 14 405 165 411 159 3 -3 -4 -19
-16 -35 -13 -17 -20 -37 -17 -45 6 -15 14 -15 115 8 24 6 31 35 8 35 -17 0
-49 47 -41 60 11 18 31 10 48 -20 10 -16 38 -42 63 -56 52 -30 67 -54 58 -89
-7 -28 7 -33 26 -10 9 10 11 32 7 65 -6 50 -6 50 16 35 28 -19 81 -19 97 0 7
8 10 26 8 39 -5 22 -2 24 28 19 28 -5 40 1 76 31 23 20 53 39 65 42 31 8 73
-3 73 -20 0 -26 -136 -141 -225 -190 -121 -67 -199 -120 -225 -153 l-22 -28
34 -14 c22 -9 61 -12 119 -9 111 5 178 37 409 192 95 64 205 132 245 151 71
34 200 73 210 63 3 -3 1 -16 -4 -29 -5 -15 -5 -47 1 -82 11 -65 6 -77 -22 -59
-28 17 -30 16 -30 -18 0 -51 -25 -86 -75 -105 -25 -10 -45 -20 -45 -22 0 -20
29 -47 65 -63 40 -17 85 -64 73 -75 -3 -3 -19 0 -37 6 -18 6 -35 9 -38 5 -4
-3 -2 -27 3 -54 l9 -47 118 -9 117 -9 0 -27 c0 -41 -30 -63 -66 -50 -16 6 -39
21 -52 33 l-22 21 11 -33 c10 -27 9 -39 -4 -67 -23 -47 -63 -56 -93 -21 -32
37 -49 27 -91 -57 -19 -39 -44 -81 -56 -93 -24 -26 -64 -30 -93 -8 -29 22 -34
18 -34 -23 0 -26 -11 -57 -35 -96 -25 -42 -35 -70 -35 -100 0 -33 -4 -43 -22
-51 -12 -6 -29 -27 -37 -48 -13 -36 -13 -39 8 -54 22 -15 22 -19 16 -108 -4
-51 -4 -102 0 -114 8 -26 24 -26 144 -1 52 11 114 20 138 20 40 0 113 -22 113
-34 0 -3 -30 -23 -68 -45 -81 -48 -124 -58 -155 -38 -22 14 -22 14 -22 -54 0
-75 -19 -113 -70 -138 -25 -12 -29 -11 -37 3 -5 10 -30 40 -54 67 -24 27 -44
58 -44 69 0 19 0 19 -33 0 -21 -13 -50 -20 -86 -20 -51 0 -53 -1 -46 -23 25
-79 10 -119 -50 -133 l-36 -9 51 -39 c60 -46 140 -137 140 -159 0 -19 -37 -47
-62 -47 -10 0 -18 6 -18 13 0 6 -13 32 -30 57 -16 24 -32 57 -35 72 -7 32 -29
36 -63 12 -34 -24 -26 -64 15 -78 18 -6 42 -20 53 -31 l20 -21 -184 -72 c-180
-70 -284 -102 -338 -102 -22 0 -29 -7 -38 -37 -19 -60 -56 -110 -102 -137 -24
-13 -99 -41 -168 -61 -137 -40 -187 -65 -239 -119 l-34 -35 64 26 c73 31 143
34 406 19 200 -12 248 2 307 86 l16 22 22 -21 c60 -54 146 -75 202 -48 20 10
36 20 36 24 0 3 7 14 14 24 13 17 16 16 61 -8 79 -42 136 -33 346 51 76 30
151 54 167 54 37 0 62 -30 62 -74 l0 -29 123 6 c109 6 234 22 567 74 132 20
384 23 463 4 58 -13 60 -12 85 12 46 43 74 51 198 58 170 10 201 29 224 137
l12 52 41 0 c23 0 69 12 102 26 95 40 166 64 192 64 28 0 28 3 6 41 -30 50
-54 47 -142 -16 -32 -24 -71 -33 -71 -18 0 4 23 31 51 59 58 59 65 90 30 128
l-22 23 61 6 c33 3 67 11 76 18 21 17 31 2 15 -23 -12 -19 -11 -23 5 -35 37
-27 66 -8 103 65 40 79 53 89 97 73 19 -7 43 -9 54 -6 17 5 20 2 20 -24 0 -37
32 -63 63 -52 33 12 31 29 -7 67 -53 53 -50 68 6 34 49 -29 88 -25 147 15 58
40 97 44 135 14 14 -11 26 -19 26 -17 0 3 -7 28 -16 57 -8 29 -13 55 -11 57 2
3 69 -44 148 -104 303 -229 615 -420 994 -608 291 -144 495 -230 760 -320 909
-311 1779 -407 2730 -303 292 32 488 68 998 181 566 125 1110 323 1572 571
786 421 1555 1078 2075 1772 92 124 260 368 260 380 0 3 18 32 40 64 62 91 93
166 86 209 -10 67 -72 98 -140 72 l-26 -10 20 39 c54 106 136 287 172 376 22
55 50 123 63 151 70 153 207 603 265 869 25 113 38 153 54 167 69 59 174 133
238 168 73 39 148 73 148 67 0 -2 -20 -18 -45 -37 -57 -42 -79 -89 -71 -146 6
-44 60 -164 74 -164 4 0 68 52 142 116 254 216 333 257 500 258 60 1 125 -5
151 -12 43 -13 45 -15 41 -44 -5 -31 43 -148 60 -148 14 0 9 143 -8 205 -8 33
-23 74 -33 91 l-18 31 49 -9 c68 -13 112 4 149 54 27 38 29 48 29 126 0 46 -7
111 -16 145 -14 54 -65 165 -96 209 -10 14 -9 21 6 37 11 12 24 21 29 21 5 0
32 -20 58 -45 51 -48 69 -55 69 -29 0 17 -51 71 -84 90 -11 5 -17 15 -13 20 4
7 31 2 77 -13 52 -17 88 -23 133 -21 58 3 62 5 65 28 2 14 -4 34 -13 45 -15
19 -15 19 -9 -7 5 -24 3 -28 -14 -28 -27 0 -72 21 -72 33 0 21 41 74 67 86 16
7 71 29 123 48 144 52 205 100 186 149 -6 15 -10 14 -34 -8 -49 -46 -118 -72
-243 -92 -31 -6 -113 5 -161 20 -20 6 -27 -19 -16 -62 5 -18 4 -42 -1 -55 l-9
-24 -12 30 c-7 17 -9 49 -6 75 4 25 9 71 13 103 5 50 9 58 30 63 13 4 51 1 83
-6 59 -12 90 -9 90 9 0 5 -10 13 -22 16 -27 9 -68 44 -68 59 0 6 57 24 126 40
155 35 250 33 338 -7 31 -14 56 -23 56 -19 0 17 -41 72 -62 84 -13 7 -67 15
-120 18 -54 3 -103 11 -109 17 -9 9 6 34 58 105 89 119 130 182 182 287 47 92
95 232 106 304 6 40 5 47 -10 47 -9 0 -19 -9 -22 -20 -3 -11 -10 -20 -15 -20
-12 0 -6 42 13 87 7 18 11 35 7 38 -10 10 -89 -7 -109 -24 l-20 -16 20 -27
c17 -21 18 -27 6 -31 -25 -10 -44 -61 -55 -153 -16 -121 -27 -162 -50 -174
-27 -14 -34 -12 -20 6 8 8 21 51 30 94 l17 80 -23 -6 c-33 -8 -38 11 -10 41
26 28 40 83 51 198 5 62 4 67 -14 67 -11 0 -33 -14 -49 -31 -30 -32 -52 -32
-52 -1 0 9 14 46 30 81 41 85 122 162 256 244 60 37 116 71 124 76 12 8 11 14
-10 36 -16 17 -21 28 -13 33 6 4 18 24 26 45 21 48 40 47 57 -3 7 -22 18 -40
24 -40 20 0 160 87 203 126 47 43 113 147 113 177 0 16 -5 18 -27 12 -45 -11
-73 -34 -101 -82 -48 -82 -115 -138 -97 -80 16 50 16 73 2 86 -13 10 -23 4
-63 -39 -98 -104 -252 -147 -362 -100 -52 22 -142 108 -142 135 0 6 9 20 20
30 22 20 45 90 56 170 3 28 8 53 10 57 5 7 88 -36 117 -60 24 -21 21 -40 -18
-102 -24 -37 -35 -66 -35 -91 0 -79 20 -86 118 -39 65 31 106 38 117 20 14
-23 22 -7 17 39 l-4 48 73 5 c95 6 166 42 272 135 43 37 112 98 153 134 67 58
183 129 213 129 6 0 11 -19 11 -45 0 -43 1 -45 29 -45 34 0 86 34 168 110 34
32 71 61 83 65 15 5 19 12 14 23 -20 47 -16 69 15 91 37 27 44 71 10 71 -12 0
-23 -8 -26 -20 -8 -29 -17 -25 -36 15 -13 26 -17 63 -17 138 0 107 -9 142 -32
119 -28 -28 -25 -9 6 37 19 27 36 69 40 94 13 88 -33 206 -120 305 -43 49 -49
72 -19 72 7 0 27 -11 43 -25 34 -28 33 -29 48 45 11 58 48 132 124 250 85 132
118 208 126 289 l7 59 -39 -2 c-37 -1 -39 1 -42 30 -2 22 -11 35 -29 43 l-26
12 20 22 c12 12 24 32 27 44 6 18 2 24 -20 29 -59 15 -168 -3 -289 -49 -120
-44 -204 -67 -251 -67 -19 0 -28 8 -40 35 -10 24 -20 35 -31 33 -29 -5 -27 30
1 43 21 10 38 8 103 -15 43 -14 86 -26 94 -26 30 0 42 27 35 75 l-7 45 -52 0
c-63 0 -87 15 -123 75 -14 25 -27 45 -28 45 -2 0 6 -25 16 -56 11 -31 17 -63
14 -71 -10 -26 -35 -25 -67 2 -23 19 -39 25 -55 21 -20 -5 -26 -1 -37 26 -8
18 -26 51 -41 72 -32 47 -32 52 -5 59 22 6 23 16 3 84 -6 21 -5 21 32 10 53
-15 53 -16 20 -42 -37 -30 -29 -51 26 -65 24 -7 52 -16 64 -20 21 -8 20 -6 -7
63 -30 80 -54 193 -65 310 -6 70 -9 78 -30 83 -37 9 -69 -3 -82 -31 -13 -29
-15 -194 -3 -267 5 -30 4 -45 -2 -41 -17 10 -74 144 -112 263 l-36 115 -57 1
c-31 1 -60 -2 -63 -7 -3 -5 -2 -37 2 -72 4 -34 6 -64 4 -66 -3 -2 -16 4 -29
13 -43 28 -81 21 -113 -21 -51 -68 -110 -123 -132 -123 -17 0 -22 8 -27 42
l-7 41 -20 -41 c-56 -119 -176 -139 -364 -60 -71 29 -73 31 -73 66 0 20 -9 69
-21 109 -27 98 -24 109 26 105 54 -5 62 -15 36 -48 -24 -30 -28 -76 -7 -93 11
-9 14 -2 18 39 6 57 24 86 44 69 9 -8 10 -17 3 -36 -7 -19 -4 -45 13 -104 22
-77 23 -77 33 -46 14 44 36 44 105 4 32 -19 68 -38 81 -42 19 -6 21 -4 15 11
-5 11 -11 42 -15 71 -10 70 -24 84 -71 77 -41 -7 -60 7 -40 31 16 19 5 50 -38
108 -24 33 -31 52 -24 59 7 7 17 6 31 -1 18 -10 21 -9 21 7 0 29 -55 98 -102
129 -39 26 -49 28 -147 29 -144 0 -140 -1 -106 34 16 16 26 33 22 36 -3 3 -23
-12 -44 -34 -24 -26 -54 -44 -83 -53 -42 -11 -89 -43 -79 -53 2 -2 64 -8 137
-12 128 -7 132 -7 116 -25 -15 -17 -16 -25 -5 -75 7 -30 11 -57 9 -60 -3 -2
-22 5 -43 16 -47 24 -87 25 -167 4 -73 -18 -108 -12 -156 29 -35 32 -35 32
-29 7 18 -63 18 -76 2 -90 -14 -12 -18 -12 -26 1 -5 8 -9 25 -9 39 0 14 -3 36
-7 48 -5 20 -10 23 -34 18 -42 -8 -74 7 -142 69 -33 30 -65 55 -71 55 -6 -1
-22 -7 -36 -15 -57 -32 -122 -14 -230 64 -61 45 -69 48 -73 30 -3 -13 -14 -19
-31 -19 -20 0 -26 -5 -26 -21 0 -15 4 -19 16 -15 23 9 50 -9 64 -44 12 -28 11
-34 -7 -52 -12 -11 -42 -24 -69 -29 -73 -14 -83 -29 -42 -69 64 -64 116 -72
266 -41 93 19 127 18 185 -9 51 -25 26 -66 -70 -114 -28 -14 -62 -40 -76 -57
l-25 -33 -16 39 c-9 21 -19 49 -22 62 -4 13 -9 25 -13 28 -4 2 -32 -16 -61
-40 -120 -99 -236 -123 -630 -135 -240 -7 -310 -12 -375 -29 -44 -10 -81 -18
-83 -17 -1 2 2 14 6 27 5 13 13 48 17 77 8 63 32 96 59 86 18 -7 18 -8 -2 -15
-12 -5 -22 -15 -22 -24 0 -12 3 -13 19 -3 16 10 25 7 54 -15 20 -15 39 -27 44
-27 5 0 16 23 26 51 25 70 86 133 151 158 29 11 117 32 195 46 77 15 141 32
141 37 0 20 -21 48 -37 48 -9 0 -27 -9 -39 -21 -12 -11 -24 -16 -28 -11 -5 9
88 95 128 119 30 18 73 16 80 -3 3 -9 6 -28 6 -43 0 -28 1 -28 41 -21 60 11
67 23 40 70 -12 22 -21 48 -19 58 3 11 13 0 31 -35 15 -28 31 -54 37 -58 17
-11 11 51 -11 116 -13 38 -18 64 -12 68 6 3 17 20 26 37 22 43 45 60 59 46 9
-9 9 -15 0 -24 -30 -30 3 -88 49 -88 9 0 44 18 78 41 33 22 67 39 74 37 14 -3
127 -125 127 -137 0 -3 29 -7 65 -8 50 -1 65 2 65 13 0 8 -6 14 -13 14 -34 0
-36 23 -6 60 19 24 29 47 27 61 -5 33 -28 37 -28 4 0 -20 -8 -29 -32 -40 -31
-12 -34 -11 -65 16 -74 64 -153 82 -245 55 -31 -9 -58 -16 -61 -16 -3 0 -9 15
-12 33 -12 55 -45 111 -58 98 -18 -18 -43 -13 -75 14 -59 50 -80 17 -47 -76
12 -34 13 -44 3 -51 -7 -4 -16 -8 -19 -8 -3 0 -25 -27 -48 -60 -49 -69 -79
-83 -119 -53 -35 26 -39 43 -10 43 13 0 41 9 64 19 57 26 74 66 74 173 l0 85
-29 -5 c-38 -5 -55 20 -81 122 -24 94 -27 100 -46 81 -9 -9 -34 -15 -60 -15
-38 0 -44 -3 -50 -25 -4 -18 1 -33 20 -56 26 -31 34 -59 16 -59 -5 0 -17 -14
-25 -31 -14 -25 -19 -28 -31 -18 -11 9 -13 23 -9 51 6 34 5 37 -12 32 -65 -21
-87 -53 -81 -120 2 -27 8 -39 18 -39 12 0 14 10 12 43 -5 56 12 54 38 -5 12
-27 44 -83 72 -126 28 -43 49 -79 47 -80 -2 -2 -38 -20 -80 -41 -66 -33 -78
-36 -101 -26 -24 11 -48 47 -48 70 0 6 9 10 20 10 37 0 19 64 -19 66 -15 1
-25 -14 -46 -75 -29 -81 -86 -194 -113 -225 -20 -21 -90 -58 -147 -76 -51 -16
-78 -39 -72 -62 3 -10 2 -18 -2 -18 -14 0 -40 35 -60 81 l-20 46 34 79 c19 43
35 85 35 92 0 22 -32 13 -109 -33 -88 -51 -150 -75 -194 -75 l-31 0 32 29 c28
27 31 33 22 57 -17 43 -21 46 -41 28 -10 -9 -24 -14 -32 -11 -11 4 -12 -3 -1
-44 15 -56 7 -93 -32 -163 -34 -61 -30 -90 15 -94 50 -5 84 14 116 64 32 50
69 84 93 84 11 0 14 -10 10 -50 -7 -65 -41 -116 -113 -165 l-57 -40 -79 85
c-43 47 -78 90 -79 96 0 6 9 23 21 38 l20 26 -26 59 c-30 65 -75 118 -75 87 0
-10 -12 -21 -31 -28 -28 -10 -30 -14 -25 -41 l6 -31 -27 25 c-16 14 -82 77
-148 139 -437 410 -951 769 -1495 1044 -745 377 -1472 587 -2320 672 -154 15
-826 28 -935 18z m903 -228 c646 -66 1242 -214 1822 -453 197 -81 574 -267
755 -374 143 -84 415 -258 415 -265 0 -3 -33 14 -72 36 -159 90 -583 293 -763
364 -716 283 -1495 441 -2285 462 -631 18 -1422 -92 -2066 -286 -695 -210
-1455 -611 -2085 -1102 -265 -206 -628 -545 -826 -771 l-86 -98 -64 7 c-76 8
-105 -7 -123 -62 -11 -33 -11 -39 6 -51 10 -7 33 -13 51 -13 l34 0 -55 -67
c-73 -92 -237 -322 -376 -530 -80 -119 -123 -175 -143 -184 -15 -6 -37 -23
-47 -37 -15 -18 -20 -21 -20 -8 0 9 -4 16 -10 16 -6 0 -10 -31 -10 -74 0 -52
-5 -83 -17 -105 -21 -36 -33 -40 -33 -11 0 25 -26 26 -53 3 -18 -16 -20 -16
-15 -2 4 9 12 68 19 131 18 168 2 188 -63 80 -67 -110 -81 -167 -85 -340 l-3
-153 23 3 c18 2 23 -2 25 -28 2 -25 -1 -33 -19 -37 -17 -4 -20 -11 -16 -29 3
-13 -1 -34 -8 -48 -8 -14 -14 -19 -15 -12 0 6 -4 12 -8 12 -4 0 -14 -27 -20
-59 -16 -76 -66 -193 -109 -252 -39 -55 -73 -126 -72 -154 l0 -20 15 20 c9 11
15 15 13 9 -2 -5 -28 -82 -58 -170 l-55 -159 -59 -44 c-99 -74 -167 -181 -221
-346 -29 -88 -31 -99 -16 -90 13 8 13 -36 0 -69 -14 -38 -25 -32 -45 22 -22
59 -32 72 -56 72 -24 0 -24 -4 7 142 57 273 153 613 241 858 81 225 111 246
191 132 22 -31 49 -66 61 -76 32 -29 69 -12 97 44 29 57 30 56 -4 63 -15 3
-61 35 -101 72 -41 36 -84 68 -97 71 -13 4 -24 8 -24 10 0 3 27 66 61 142 120
271 352 702 378 702 11 0 13 -15 8 -75 -6 -84 5 -96 42 -49 25 31 71 172 71
215 0 36 -19 35 -37 -2 -12 -23 -13 -23 -13 11 0 51 107 213 146 220 35 6 70
56 79 113 8 48 103 180 277 387 57 68 118 144 137 169 58 78 447 460 606 595
394 337 820 618 1295 857 286 143 520 240 835 344 542 180 1048 285 1570 325
77 6 160 12 185 14 110 9 745 -4 888 -18z m282 -471 c1237 -121 2298 -530
3270 -1259 161 -120 382 -304 506 -419 l81 -76 -8 -53 c-11 -83 -13 -86 -77
-90 l-57 -3 -145 134 c-471 436 -942 766 -1495 1046 -734 372 -1472 588 -2295
671 -303 30 -811 30 -1220 -1 -84 -6 105 22 270 40 80 9 197 20 260 25 173 13
718 4 910 -15z m-1523 -61 c-3 -3 -12 -4 -19 -1 -8 3 -5 6 6 6 11 1 17 -2 13
-5z m1318 -208 c1095 -119 2095 -498 2987 -1133 242 -172 579 -453 726 -606
l43 -44 -69 -7 c-102 -10 -211 -38 -447 -116 -353 -116 -492 -142 -651 -120
-103 13 -104 14 -212 98 -46 35 -86 62 -89 58 -4 -3 -1 -12 5 -18 18 -18 14
-53 -7 -72 -23 -21 -64 -33 -165 -46 -44 -7 -89 -16 -99 -22 -18 -9 -18 -11 4
-34 15 -16 26 -21 32 -15 12 12 42 -2 50 -22 4 -11 -5 -13 -41 -10 -31 3 -70
-3 -111 -16 -64 -21 -107 -26 -135 -15 -22 9 -8 32 24 39 16 3 31 13 34 20 7
20 -14 78 -35 92 -9 7 -40 50 -69 95 -29 46 -54 85 -56 87 -1 1 -27 -9 -58
-23 -30 -14 -59 -26 -64 -26 -5 0 -27 -13 -49 -29 -56 -40 -73 -89 -73 -204 0
-104 6 -137 26 -137 10 0 61 55 140 153 7 9 17 17 21 17 21 0 76 -44 113 -91
l41 -52 -23 -11 c-33 -17 -33 -46 1 -86 28 -33 30 -34 44 -16 13 18 15 18 40
-10 32 -34 32 -35 8 -83 -24 -46 -91 -108 -127 -117 -34 -9 -186 3 -283 21
-106 21 -111 19 -73 -15 26 -24 41 -30 80 -30 26 0 54 -5 62 -10 19 -12 21
-12 -80 0 -47 6 -177 32 -290 57 -234 52 -372 62 -442 31 l-38 -17 -6 27 c-11
43 -42 99 -59 105 -37 15 -65 -23 -65 -88 0 -28 3 -33 16 -28 17 6 44 -20 44
-43 0 -10 -7 -11 -30 -2 -36 12 -60 -2 -60 -36 -1 -39 -17 5 -35 94 -19 94
-31 124 -46 114 -7 -4 -8 -40 -5 -98 6 -85 5 -89 -8 -55 -24 62 -56 119 -67
119 -5 0 -23 -7 -39 -15 -16 -8 -36 -12 -45 -9 -17 7 -55 74 -55 98 0 25 44
47 116 57 38 5 78 16 90 24 28 18 44 91 35 163 l-6 52 -38 -25 c-116 -79 -255
-76 -559 15 -218 65 -309 74 -405 39 -64 -24 -123 -63 -123 -82 0 -22 104
-117 139 -127 25 -7 47 -4 94 10 107 34 143 26 193 -41 27 -37 31 -76 9 -105
-14 -19 -15 -18 -65 9 -27 15 -52 27 -55 27 -2 0 -9 -9 -15 -21 -15 -27 -3
-99 16 -99 16 0 34 -31 34 -58 0 -10 -14 -38 -31 -61 -46 -65 -97 -83 -254
-91 -71 -4 -132 -5 -135 -3 -3 3 -7 72 -9 154 -3 140 -11 179 -25 127 -3 -13
-6 -40 -6 -62 0 -34 -2 -38 -20 -33 -16 4 -20 1 -16 -11 14 -49 46 -215 46
-239 l0 -27 -16 23 c-20 28 -32 19 -54 -42 -21 -58 -50 -58 -70 0 l-14 42 -36
-67 c-28 -52 -50 -77 -101 -115 -35 -26 -98 -73 -139 -105 -41 -31 -77 -58
-81 -60 -6 -3 -22 74 -35 173 -8 67 -29 105 -57 105 -32 0 -48 -13 -81 -69
-17 -27 -46 -68 -64 -90 l-34 -41 44 6 c35 5 50 1 77 -18 19 -12 36 -28 38
-34 5 -14 -116 -66 -205 -89 -118 -30 -308 -15 -300 24 4 16 17 17 78 7 74
-14 76 24 4 103 -42 47 -76 53 -98 19 -8 -13 -29 -61 -46 -108 -17 -47 -39
-96 -50 -110 l-20 -25 3 145 c1 89 -2 147 -8 150 -5 3 -12 -6 -13 -20 -5 -34
-19 -47 -34 -32 -7 7 -18 12 -26 12 -11 0 -13 -14 -10 -62 l3 -62 -40 -12
c-56 -17 -140 -17 -208 1 -31 8 -117 41 -190 74 -144 63 -228 86 -280 76 -57
-12 -117 -55 -162 -116 -46 -63 -46 -63 -60 11 -13 69 -7 65 -112 65 -161 1
-284 36 -658 185 -216 86 -400 150 -431 150 -14 0 -15 -8 -9 -56 8 -70 28
-137 49 -169 22 -33 68 -33 121 0 48 29 67 31 88 7 21 -23 49 -133 45 -174
l-3 -31 -34 28 c-31 27 -34 28 -46 12 -13 -18 -30 -125 -22 -134 3 -2 43 3 88
12 99 20 146 11 179 -35 l21 -29 -38 15 c-54 23 -102 13 -218 -45 -118 -60
-158 -65 -197 -23 -14 15 -32 41 -41 57 -19 38 -50 165 -43 173 3 3 6 -2 6
-10 0 -9 7 -21 16 -29 21 -17 31 -1 39 66 19 161 20 145 -12 145 -15 0 -56
-10 -90 -22 l-62 -22 -25 24 c-15 13 -26 32 -26 43 0 23 67 87 129 124 l44 26
-74 25 c-84 27 -104 45 -114 102 -9 56 -25 60 -25 7 0 -82 -31 -207 -51 -207
-15 0 -22 69 -9 85 15 18 27 155 13 155 -5 0 -24 -25 -42 -55 -32 -52 -33 -60
-27 -116 6 -60 5 -61 -17 -55 -120 33 -202 38 -623 32 l-423 -6 17 30 c10 19
35 40 62 52 l45 21 90 -22 c49 -12 100 -21 111 -21 55 0 94 72 94 171 l0 43
-33 -32 c-40 -39 -59 -40 -129 -7 -29 14 -61 25 -71 25 -14 0 -4 19 42 79 45
59 65 78 79 75 25 -7 55 30 55 67 0 24 20 53 92 138 77 90 99 109 135 120 61
18 74 0 65 -88 -5 -42 -3 -61 3 -57 22 13 83 247 67 253 -39 13 -38 21 4 72
63 76 259 259 416 391 883 739 1912 1195 3055 1354 96 14 234 30 305 35 72 6
148 13 170 15 22 2 222 2 445 1 288 -2 448 -8 555 -19z m4773 -1087 c3 -18
-35 -77 -60 -93 -46 -28 -74 41 -37 88 17 22 28 27 58 24 23 -2 37 -9 39 -19z
m-423 -219 c15 -16 14 -18 -15 -22 -35 -5 -75 27 -51 41 18 11 46 3 66 -19z
m3766 -1372 c13 -31 16 -94 6 -105 -3 -3 -16 2 -29 11 -37 26 -57 20 -75 -21
-14 -34 -14 -95 -1 -153 6 -29 -51 -24 -96 8 -22 16 -50 31 -61 34 -16 3 -19
10 -17 38 6 73 6 116 -1 131 -7 13 1 19 38 28 26 6 67 9 94 5 44 -6 51 -4 82
25 19 17 37 31 40 31 4 0 12 -14 20 -32z m-12936 -181 c8 -59 20 -74 28 -34 2
12 3 6 2 -14 -3 -42 -24 -91 -42 -97 -10 -3 -13 25 -12 120 0 126 10 136 24
25z m-754 -3 c-6 -32 -16 -63 -21 -68 -17 -17 -11 81 8 120 22 46 27 25 13
-52z m-126 52 c31 -47 39 -218 13 -269 -13 -25 -24 -14 -43 43 -17 52 -45 68
-45 28 -1 -32 -34 -102 -76 -159 -34 -47 -120 -116 -130 -106 -12 12 240 487
258 487 4 0 15 -11 23 -24z m1164 1 c11 -15 61 -141 61 -157 0 -6 -9 -10 -19
-10 -11 0 -23 -4 -26 -10 -19 -30 -46 14 -65 103 -9 45 -9 61 0 72 15 19 34
19 49 2z m-1702 -159 c-3 -8 -6 -5 -6 6 -1 11 2 17 5 13 3 -3 4 -12 1 -19z
m14424 -215 c-17 -48 -31 -92 -31 -98 0 -6 16 -19 35 -28 23 -11 35 -13 35 -5
0 6 10 30 22 54 17 36 24 41 36 32 10 -9 12 -27 7 -79 -4 -43 -3 -69 4 -73 10
-7 -124 -142 -183 -184 -37 -26 -106 -41 -106 -23 0 6 22 34 48 61 36 37 56
50 77 50 l28 0 -7 82 c-7 85 -19 115 -36 88 -6 -10 -12 -11 -19 -5 -13 14 38
210 67 257 33 53 46 53 50 2 2 -29 -7 -72 -27 -131z m-11639 155 c14 -11 15
-25 9 -89 -10 -96 -13 -100 -51 -86 -23 9 -35 9 -50 -1 -19 -11 -20 -10 -20
30 0 114 57 188 112 146z m123 -58 c7 -14 15 -41 19 -60 6 -35 6 -35 -31 -34
-43 1 -58 19 -67 79 l-5 40 35 0 c28 0 39 -6 49 -25z m-2835 10 c0 -5 -4 -10
-10 -10 -5 0 -10 5 -10 10 0 6 5 10 10 10 6 0 10 -4 10 -10z m2532 -187 c-5
-114 3 -105 -100 -119 l-54 -7 4 29 c2 23 12 33 50 51 57 27 76 59 85 145 10
95 20 28 15 -99z m-1235 115 c51 -56 68 -133 37 -176 -43 -62 -107 17 -108
135 0 33 18 63 38 63 7 0 22 -10 33 -22z m-1087 -266 l0 -68 -35 -17 c-40 -19
-95 -23 -95 -7 0 43 85 160 117 160 9 0 13 -19 13 -68z m13317 -28 c54 -15
-35 -117 -134 -154 -72 -27 -93 -26 -93 4 0 49 63 115 136 141 44 16 59 17 91
9z m963 -110 c0 -31 -21 -54 -63 -65 -23 -7 -50 -19 -59 -27 -16 -14 -18 -13
-18 5 0 24 28 51 84 79 52 27 56 27 56 8z m-384 -69 c-5 -15 -83 -75 -98 -75
-4 0 -8 11 -8 25 0 14 -4 25 -10 25 -12 0 -13 10 0 30 10 15 113 31 118 17 2
-4 1 -14 -2 -22z m-7880 1 c160 -42 273 -164 321 -346 23 -89 23 -300 0 -390
-41 -155 -125 -262 -253 -322 -78 -37 -206 -49 -295 -28 -238 55 -372 276
-356 585 10 182 49 286 143 385 56 58 117 96 194 116 61 17 184 17 246 0z
m7022 -8 c14 -7 27 -17 29 -23 1 -5 -46 -37 -105 -71 l-107 -61 1 -39 c1 -21
3 -61 5 -88 3 -41 0 -51 -20 -67 -30 -24 -41 -24 -41 0 0 28 -27 51 -60 51
l-29 0 26 63 c82 205 190 289 301 235z m-10988 -83 l0 -85 -165 0 -165 0 0
-455 0 -455 -115 0 -115 0 0 455 0 455 -160 0 -160 0 0 85 0 85 440 0 440 0 0
-85z m350 -135 l0 -220 215 0 215 0 0 220 0 220 115 0 115 0 0 -540 0 -540
-115 0 -115 0 0 235 0 235 -215 0 -215 0 0 -235 0 -235 -115 0 -115 0 0 540 0
540 115 0 115 0 0 -220z m1570 135 l0 -85 -250 0 -250 0 0 -135 0 -135 215 0
215 0 0 -85 0 -85 -215 0 -215 0 0 -150 0 -150 250 0 250 0 0 -85 0 -85 -365
0 -365 0 0 540 0 540 365 0 365 0 0 -85z m1073 70 c81 -21 127 -47 180 -101
63 -64 90 -135 90 -239 1 -95 -23 -158 -81 -218 -86 -89 -176 -117 -381 -117
l-141 0 0 -195 0 -195 -115 0 -115 0 0 540 0 540 253 0 c192 0 267 -4 310 -15z
m1630 -7 c3 -13 36 -180 72 -373 37 -192 68 -351 69 -352 1 -2 39 158 85 355
45 196 85 365 87 375 5 16 17 17 102 15 l96 -3 87 -375 86 -375 12 55 c6 30
38 199 71 374 33 176 62 321 64 323 2 2 53 2 113 1 l110 -3 -108 -485 c-60
-267 -113 -509 -119 -537 l-11 -53 -114 0 -114 0 -10 38 c-5 20 -44 179 -86
352 -42 173 -78 316 -79 317 -1 1 -40 -156 -87 -350 l-86 -352 -115 -3 -115
-3 -116 529 c-64 291 -117 534 -117 540 0 9 32 12 109 12 105 0 109 -1 114
-22z m1897 -63 l0 -85 -250 0 -250 0 0 -135 0 -135 215 0 215 0 0 -85 0 -85
-215 0 -215 0 0 -150 0 -150 250 0 250 0 0 -85 0 -85 -365 0 -365 0 0 540 0
540 365 0 365 0 0 -85z m662 74 c120 -26 199 -83 239 -172 19 -41 24 -69 24
-137 0 -47 -6 -103 -14 -124 -16 -46 -78 -117 -130 -148 -20 -12 -38 -23 -39
-24 -2 -1 48 -104 112 -227 64 -123 116 -227 116 -231 0 -3 -55 -6 -123 -6
l-122 0 -99 205 -99 205 -88 0 -89 0 0 -205 0 -205 -115 0 -115 0 0 540 0 540
245 0 c144 0 266 -5 297 -11z m-10497 -329 c22 -43 18 -49 -9 -15 -13 16 -22
33 -19 37 7 13 12 9 28 -22z m14159 -662 c14 -23 24 -43 23 -44 -1 -1 -14 -4
-30 -8 -23 -5 -30 -2 -46 25 -18 29 -18 32 -2 49 23 26 27 25 55 -22z m-13934
-85 c0 -10 -9 -47 -20 -82 -10 -35 -17 -68 -14 -73 11 -18 50 -7 81 24 30 29
33 30 40 12 4 -10 7 -39 8 -63 0 -40 -4 -47 -34 -68 -19 -13 -37 -23 -41 -23
-21 0 -75 49 -78 70 -2 13 4 75 13 137 15 96 19 110 31 98 8 -7 14 -22 14 -32z
m121 -806 c30 -41 36 -80 23 -147 -6 -25 -15 -36 -48 -50 -29 -12 -46 -28 -58
-53 -26 -55 -51 -192 -46 -258 2 -32 0 -59 -5 -59 -5 0 -7 -6 -4 -12 2 -7 -4
-24 -14 -37 -11 -13 -19 -30 -19 -37 0 -19 41 -44 73 -44 19 0 27 -4 24 -12
-2 -7 -13 -12 -23 -10 -10 2 -38 4 -61 5 -39 2 -43 5 -48 32 -10 60 -25 390
-25 539 l1 151 33 -64 33 -64 6 39 c14 82 8 147 -18 189 -14 22 -25 46 -25 52
0 19 168 -115 201 -160z m6101 120 c134 -66 208 -208 208 -402 0 -150 -43
-268 -125 -344 -75 -69 -123 -86 -240 -86 -125 0 -180 22 -255 101 -79 83
-110 174 -110 321 0 159 34 263 112 342 76 76 146 102 269 98 69 -2 96 -8 141
-30z m888 -47 l0 -70 -190 0 -190 0 0 -110 0 -110 170 0 170 0 0 -70 0 -70
-170 0 -170 0 0 -175 0 -175 -90 0 -90 0 0 425 0 425 280 0 280 0 0 -70z
m6778 -207 c-9 -19 -36 -39 -88 -65 -41 -20 -76 -35 -78 -33 -12 11 35 59 101
104 75 51 91 49 65 -6z m-218 -142 c0 -28 -68 -109 -134 -160 -31 -24 -59 -42
-61 -39 -3 3 26 33 65 67 44 40 77 78 89 107 21 46 41 58 41 25z m-220 -265
c0 -19 5 -38 10 -41 26 -16 -1 -87 -53 -142 -42 -45 -97 -43 -97 2 0 18 8 26
33 34 44 15 92 64 83 86 -4 13 -15 16 -39 13 l-33 -4 20 32 c19 29 48 51 69
53 4 1 7 -14 7 -33z m-214 -18 c-3 -13 -6 -29 -6 -35 0 -23 -15 -14 -27 17
-11 30 -6 37 26 39 9 1 11 -6 7 -21z m-236 -92 c0 -11 -19 -15 -25 -6 -3 5 1
10 9 10 9 0 16 -2 16 -4z m305 -133 c4 -13 -2 -25 -21 -40 -44 -35 -59 -15
-23 31 24 30 34 33 44 9z m-13334 -84 c38 -27 74 -90 89 -158 13 -55 9 -318
-6 -371 -7 -25 -7 -25 25 5 25 23 35 27 49 19 22 -13 81 -130 85 -169 2 -16
11 -44 20 -62 l17 -31 -74 -46 c-41 -25 -78 -46 -84 -46 -5 0 -17 37 -25 83
-9 45 -29 147 -46 227 -42 207 -97 570 -85 570 3 0 19 -9 35 -21z m13135 -79
c50 4 53 1 65 -45 11 -43 12 -44 32 -30 12 8 29 15 37 15 19 0 66 -47 57 -56
-3 -4 -30 -14 -59 -24 l-53 -17 -7 25 c-4 13 -39 57 -77 97 -39 40 -71 77 -71
81 1 5 11 -4 24 -19 17 -21 31 -28 52 -27z m304 11 c0 -21 -13 -43 -45 -77
-25 -26 -48 -44 -51 -41 -11 11 76 147 93 147 2 0 3 -13 3 -29z m-10593 -445
c151 -40 248 -138 288 -293 8 -31 15 -61 15 -65 0 -4 -51 -8 -113 -8 l-112 0
-13 53 c-21 91 -67 132 -162 143 -118 13 -203 -42 -237 -154 -26 -83 -25 -352
0 -437 34 -108 120 -165 229 -152 99 12 149 55 171 147 l12 50 107 0 c59 0
109 -4 112 -8 9 -15 -24 -135 -49 -177 -30 -53 -115 -132 -163 -152 -138 -58
-317 -58 -432 2 -149 77 -227 228 -237 460 -14 322 101 530 327 591 61 17 194
17 257 0z m985 -17 c120 -26 199 -83 239 -172 19 -41 24 -69 24 -137 0 -47 -6
-103 -14 -124 -16 -46 -78 -117 -130 -148 -20 -12 -38 -23 -39 -24 -2 -1 48
-104 112 -227 64 -123 116 -227 116 -231 0 -3 -55 -6 -123 -6 l-122 0 -99 205
-99 205 -88 0 -89 0 0 -205 0 -205 -115 0 -115 0 0 540 0 540 245 0 c144 0
266 -5 297 -11z m1158 -74 l0 -85 -250 0 -250 0 0 -135 0 -135 215 0 215 0 0
-85 0 -85 -215 0 -215 0 0 -150 0 -150 250 0 250 0 0 -85 0 -85 -365 0 -365 0
0 540 0 540 365 0 365 0 0 -85z m830 -407 c101 -271 192 -515 202 -541 l18
-48 -121 3 -121 3 -36 113 -36 112 -195 -2 -196 -3 -35 -112 -35 -113 -119 0
c-118 0 -118 0 -112 23 3 12 92 255 198 539 l193 518 105 0 105 0 185 -492z
m1050 407 l0 -85 -165 0 -165 0 0 -455 0 -455 -115 0 -115 0 0 455 0 455 -160
0 -160 0 0 85 0 85 440 0 440 0 0 -85z m370 -455 l0 -540 -115 0 -115 0 0 540
0 540 115 0 115 0 0 -540z m474 140 c66 -220 121 -398 123 -397 1 2 56 181
122 398 l119 394 127 3 c70 1 125 -1 123 -6 -1 -5 -86 -248 -188 -541 l-185
-531 -119 2 -119 3 -183 525 c-101 289 -183 531 -184 538 0 9 31 12 123 12
l122 0 119 -400z m956 -140 l0 -540 -115 0 -115 0 0 540 0 540 115 0 115 0 0
-540z m1000 455 l0 -85 -165 0 -165 0 0 -455 0 -455 -115 0 -115 0 0 455 0
455 -160 0 -160 0 0 85 0 85 440 0 440 0 0 -85z m396 -150 c59 -129 110 -235
113 -235 3 0 53 102 110 228 57 125 107 231 111 235 4 4 61 6 127 5 l121 -3
-174 -335 -173 -335 -1 -202 0 -203 -120 0 -120 0 0 200 0 201 -154 297 c-84
163 -163 316 -175 340 l-21 42 124 0 124 0 108 -235z m2264 141 c0 -26 -30
-72 -59 -93 l-22 -15 7 64 c5 47 12 67 28 80 20 16 22 16 34 1 6 -9 12 -26 12
-37z m-12030 -318 c0 -57 -9 -56 -33 4 -16 39 -14 48 15 48 15 0 18 -8 18 -52z
m-128 -20 c3 -30 7 -33 38 -36 19 -2 38 -9 42 -15 15 -23 8 -84 -10 -101 -18
-16 -21 -14 -55 42 -38 62 -52 103 -43 127 10 26 25 16 28 -17z m11613 -540
c-130 -374 -171 -472 -332 -793 -407 -812 -1020 -1549 -1744 -2097 -124 -94
-392 -278 -405 -278 -4 0 -4 15 -1 33 6 41 -2 89 -15 81 -5 -4 -27 11 -49 32
-35 34 -41 37 -54 23 -14 -14 -13 -23 9 -93 13 -43 32 -86 40 -95 16 -17 9
-22 -100 -86 -635 -367 -1294 -588 -2044 -685 -476 -61 -816 -63 -1315 -9
-438 48 -895 152 -1293 293 -133 47 -245 86 -248 86 -3 0 -132 59 -287 131
-181 84 -352 173 -477 247 -327 194 -721 467 -728 505 -5 24 15 21 21 -3 3
-11 12 -20 21 -20 13 0 16 14 16 83 0 51 -5 88 -12 95 -6 6 -10 13 -7 15 40
30 250 160 301 186 37 19 68 41 68 48 0 23 -39 53 -68 53 -16 0 -36 6 -46 13
-16 12 -11 18 54 68 77 58 151 147 170 204 12 36 11 36 122 50 41 5 48 3 58
-15 11 -21 12 -20 54 18 73 67 128 71 340 22 55 -13 115 -20 151 -18 l60 3 5
58 c5 52 10 63 42 92 20 19 55 39 77 45 41 11 41 11 35 50 -13 82 16 110 117
110 26 0 60 5 74 10 l27 10 -3 112 -4 112 63 20 c64 20 64 20 78 1 30 -44 36
-47 73 -40 73 14 75 13 81 -30 7 -45 29 -85 47 -85 7 0 13 -3 13 -8 0 -4 29
-7 65 -7 l66 0 47 54 47 53 35 -14 c48 -20 66 -43 50 -63 -22 -27 -4 -63 39
-75 115 -31 193 -19 329 49 69 35 86 39 148 39 126 -1 222 40 250 108 19 46
19 46 -28 39 -40 -6 -46 -4 -76 28 -19 19 -30 37 -25 40 14 8 226 56 275 62
25 2 57 9 71 14 13 5 68 14 123 21 54 6 113 15 129 20 17 5 59 11 95 15 144
13 493 73 675 117 173 41 240 39 265 -8 13 -23 12 -30 -8 -67 -32 -61 -101
-137 -123 -137 -12 0 -25 13 -36 35 -9 20 -22 34 -27 32 -12 -4 -13 -40 -2
-73 6 -19 3 -21 -38 -20 -65 1 -92 -28 -165 -179 -26 -55 -55 -90 -88 -109
-18 -10 -68 19 -93 54 -25 35 -19 50 20 50 20 0 31 6 35 20 9 28 -2 40 -36 40
-21 0 -29 4 -25 13 22 54 27 84 17 110 l-11 28 -43 -26 c-61 -35 -101 -33
-138 6 -26 28 -31 30 -42 16 -25 -32 -94 -46 -199 -40 -112 7 -126 1 -159 -72
-25 -54 -25 -69 0 -55 28 15 55 12 158 -13 l93 -23 -41 -40 c-52 -50 -96 -113
-114 -164 l-14 -40 59 0 c74 0 106 12 113 42 12 46 67 109 114 130 54 24 91
19 174 -23 68 -34 77 -45 47 -54 -13 -4 -89 -38 -171 -76 -171 -80 -242 -101
-329 -97 -60 3 -63 4 -66 29 -2 20 2 28 17 32 23 6 29 37 7 37 -7 0 -28 -3
-45 -6 -36 -8 -40 -26 -12 -68 27 -41 14 -62 -45 -71 -25 -3 -83 -26 -128 -49
-99 -52 -130 -61 -168 -45 -21 9 -28 18 -28 40 0 37 12 43 56 24 46 -19 46
-19 42 8 -3 19 -10 22 -57 25 -109 6 -284 -42 -476 -132 -83 -38 -104 -52 -85
-54 52 -6 55 -12 17 -35 -48 -29 -81 -79 -102 -152 -21 -70 -16 -75 67 -75 75
0 134 23 243 97 50 33 109 70 133 82 95 48 1464 423 1682 461 36 6 74 13 85
16 65 16 -111 -59 -332 -142 -293 -109 -449 -180 -563 -255 -44 -29 -78 -54
-76 -56 1 -2 41 15 87 36 102 48 195 72 400 105 86 14 192 37 235 51 44 13 82
25 87 25 4 0 7 -13 7 -28 l0 -28 68 11 c37 7 92 20 122 30 65 22 269 125 386
195 45 28 86 50 91 50 6 0 15 -11 21 -25 6 -14 17 -25 23 -25 47 0 337 89 386
119 31 19 31 22 26 73 -4 43 0 65 21 115 25 60 34 113 19 113 -4 0 -64 -58
-133 -128 -99 -101 -139 -135 -195 -164 -94 -48 -115 -54 -115 -32 0 10 7 25
16 35 12 14 13 22 4 38 -13 25 -37 27 -62 4 -21 -19 -50 -9 -56 18 -3 17 -23
4 296 188 141 82 278 162 303 179 53 33 127 48 135 27 4 -11 12 -10 37 5 18
10 64 21 102 24 203 18 422 70 530 123 74 37 77 41 60 66 -21 30 -19 44 8 50
12 3 116 18 230 32 241 30 345 57 479 124 l96 48 76 -96 c42 -53 89 -105 106
-114 29 -17 33 -18 75 -2 37 15 55 16 126 6 124 -17 181 -14 252 13 261 98
533 318 904 733 81 90 148 163 149 163 2 0 -25 -82 -61 -182z m-11925 50 c0
-13 9 -36 20 -53 24 -36 25 -45 5 -45 -40 0 -75 -31 -87 -75 -7 -25 -15 -45
-19 -45 -15 0 -19 34 -5 49 13 15 12 22 -16 64 -16 26 -28 53 -25 61 5 12 101
66 119 66 4 0 8 -10 8 -22z m10015 -376 c39 2 40 1 38 -27 -5 -78 -25 -125
-54 -125 -4 0 -15 20 -24 45 -10 24 -28 59 -41 76 -28 38 -23 52 14 38 14 -6
45 -9 67 -7z m-282 -62 c46 -13 47 -27 5 -38 -28 -7 -34 -13 -36 -41 -3 -30
-2 -32 17 -21 18 9 25 7 47 -15 14 -15 24 -28 22 -30 -2 -3 -85 -25 -184 -50
l-179 -45 -22 26 c-14 15 -23 38 -23 58 0 57 36 95 130 137 90 40 136 44 223
19z m980 -43 c85 -50 81 -57 -30 -50 -114 6 -175 -6 -199 -42 -14 -21 -14 -28
0 -76 9 -29 16 -54 16 -56 0 -11 -23 4 -73 51 -58 54 -58 55 -44 83 21 39 75
89 117 108 53 23 156 15 213 -18z m-1344 -5 c-46 -35 -94 -60 -193 -101 -54
-23 -101 -41 -105 -40 -8 0 302 158 313 158 5 1 -2 -7 -15 -17z m503 -21 c25
-16 48 -33 51 -38 4 -6 -14 -14 -38 -20 l-44 -10 -16 45 c-8 25 -15 47 -15 49
0 9 21 0 62 -26z m-822 -131 c-8 -5 -19 -10 -25 -10 -5 0 -3 5 5 10 8 5 20 10
25 10 6 0 3 -5 -5 -10z m-113 -51 c-112 -57 -187 -140 -187 -207 0 -12 -18
-27 -55 -45 -31 -15 -58 -27 -60 -27 -3 0 -5 52 -5 115 0 103 2 115 20 125 10
6 73 19 139 31 66 11 140 26 163 34 70 22 67 16 -15 -26z m-9377 -278 c0 -22
-8 -34 -33 -49 -33 -19 -34 -19 -45 -1 -8 12 -24 19 -42 19 -18 0 -34 8 -44
22 -9 12 -14 23 -12 26 2 2 27 -4 55 -12 40 -12 57 -13 76 -4 14 6 25 15 25
20 0 4 5 8 10 8 6 0 10 -13 10 -29z m8101 -84 c-30 -101 -54 -133 -108 -140
-54 -6 -73 7 -73 50 0 29 8 42 42 74 36 33 41 42 32 57 -8 12 -9 24 -2 36 8
14 21 16 72 14 l62 -3 -25 -88z m-8401 -14 c0 -25 1 -25 19 -9 18 17 19 16 26
-23 4 -22 7 -44 7 -47 -1 -4 -30 -20 -66 -35 -63 -27 -65 -27 -71 -8 -7 20
-25 27 -25 8 0 -5 -4 -7 -10 -4 -14 9 -13 58 2 73 18 18 32 15 43 -10 12 -28
50 -36 59 -13 4 11 -2 19 -20 25 -26 10 -25 18 4 53 21 24 32 21 32 -10z m89
-163 l10 -31 -30 18 c-27 16 -28 19 -12 30 22 17 19 18 32 -17z m841 -22 c0
-4 -16 -25 -35 -47 -19 -21 -35 -44 -35 -51 0 -19 -25 -5 -28 16 -1 10 12 43
29 72 29 52 31 53 50 36 10 -9 19 -21 19 -26z m-995 -28 c-28 -30 -78 -50
-170 -70 -27 -6 -61 -21 -74 -33 -22 -21 -26 -20 -34 8 -2 6 278 122 297 124
6 1 -3 -12 -19 -29z m857 -71 c11 -40 11 -43 -14 -64 -34 -29 -157 -53 -169
-33 -12 18 -11 53 3 83 14 30 19 31 43 5 27 -30 65 -22 90 17 11 18 23 32 27
33 4 0 13 -19 20 -41z m3258 -178 c0 -5 -6 -21 -14 -35 l-14 -27 -21 27 c-29
37 -27 44 14 44 19 0 35 -4 35 -9z m4745 -21 c18 -20 17 -20 -13 -20 -34 0
-35 1 -26 24 8 21 17 20 39 -4z m-6155 -125 c0 -87 -7 -102 -31 -71 -23 29
-23 33 -4 52 8 9 15 33 15 55 0 24 4 38 10 34 6 -3 10 -35 10 -70z m91 24
c-29 -24 -48 -24 -60 0 -9 16 -7 17 13 14 18 -4 26 1 31 17 7 21 8 21 24 5 15
-15 14 -18 -8 -36z m259 41 c9 -6 15 -25 15 -47 0 -36 2 -38 33 -41 26 -3 32
-7 32 -27 0 -29 -30 -50 -82 -59 -41 -8 -43 -4 -27 43 11 30 5 72 -16 124 -5
13 -2 17 11 17 11 0 26 -5 34 -10z m-2127 -56 c-3 -36 -53 -84 -88 -84 -21 0
-25 5 -25 28 0 38 25 70 63 81 44 13 52 8 50 -25z m-146 -57 c15 -31 15 -31
-21 -64 -19 -18 -40 -33 -46 -33 -14 0 -12 31 5 60 8 14 14 37 15 52 0 36 25
28 47 -15z m2051 31 c17 -17 15 -45 -4 -52 -28 -11 -41 -6 -52 19 -11 23 -9
27 11 35 30 12 31 12 45 -2z m-884 -82 c32 -42 32 -46 3 -46 -13 0 -47 -17
-75 -39 l-52 -38 31 -13 c40 -17 96 -15 143 5 35 15 39 15 52 -2 7 -10 14 -21
14 -25 0 -17 -96 -61 -188 -87 -103 -29 -166 -60 -176 -88 -6 -14 -8 -14 -24
-1 -26 23 -68 30 -115 18 -70 -18 -187 -72 -187 -86 0 -8 16 -31 35 -53 49
-54 47 -74 -12 -88 -27 -6 -84 -20 -127 -32 -84 -22 -126 -19 -173 14 -31 21
-29 41 6 76 34 34 74 37 161 14 30 -8 75 -15 100 -15 l45 1 -32 27 c-18 15
-38 41 -43 58 -13 37 -36 44 -137 44 -79 0 -155 -19 -262 -65 -45 -19 -99 -39
-121 -45 -22 -6 -40 -15 -40 -20 0 -5 13 -25 30 -43 l29 -34 -22 -21 c-12 -11
-44 -30 -72 -42 -67 -29 -84 -46 -91 -92 -4 -21 -9 -38 -11 -38 -3 0 -16 9
-29 19 -21 17 -55 27 -151 47 -19 4 -21 8 -13 36 18 62 72 101 155 113 99 15
155 54 155 108 0 8 24 21 58 31 73 23 166 73 267 145 115 82 144 98 209 115
46 12 68 13 108 5 48 -11 52 -10 92 20 98 75 191 90 256 42 35 -26 40 -26 40
-3 0 42 72 112 116 112 13 0 32 -14 48 -34z m370 -79 c16 -32 26 -60 22 -64
-3 -4 -26 16 -51 43 -50 54 -59 87 -22 82 16 -2 30 -20 51 -61z m84 -5 c23
-30 23 -32 6 -32 -32 0 -63 27 -57 50 7 27 20 22 51 -18z m-294 -177 c3 -8 1
-27 -4 -41 -15 -40 -12 -53 15 -60 21 -5 23 -9 14 -21 -20 -24 -46 -33 -132
-49 -45 -7 -83 -14 -85 -14 -10 0 73 144 98 169 34 34 84 42 94 16z m-1331
-434 c17 -6 16 -9 -5 -41 -13 -19 -36 -39 -51 -44 -23 -8 -31 -6 -50 12 -17
18 -19 26 -11 40 22 35 75 50 117 33z m-505 -127 c31 -21 28 -39 -12 -63 -45
-28 -100 -28 -120 1 -18 26 -11 36 39 62 38 20 65 20 93 0z m-39 -143 c11 -7
9 -13 -8 -30 -36 -36 -101 -23 -101 21 0 15 8 18 48 18 26 0 53 -4 61 -9z
m704 -87 c56 -19 78 -41 51 -51 -11 -3 -50 -28 -88 -55 -38 -26 -74 -48 -81
-48 -6 0 -33 23 -59 50 -26 28 -55 50 -64 50 -14 0 -13 3 4 21 47 47 153 62
237 33z m2595 -173 c30 -37 6 -27 -75 32 -60 43 -89 71 -91 87 -3 19 8 14 75
-40 43 -35 84 -70 91 -79z m158 -112 c97 -70 135 -101 104 -84 -34 19 -220
146 -220 150 0 14 26 -1 116 -66z m-1376 -145 c0 -32 -59 -94 -89 -94 -24 0
-61 33 -61 54 0 21 26 38 78 52 67 18 72 17 72 -12z m-215 -41 c14 -38 -37
-71 -80 -51 -18 8 -25 19 -25 40 0 29 1 29 50 26 28 -2 52 -8 55 -15z m-225
-52 c0 -10 -16 -41 -35 -67 -19 -27 -43 -61 -54 -77 -17 -26 -19 -26 -34 -9
-11 12 -13 22 -7 32 20 31 11 42 -16 21 -56 -44 -131 -62 -299 -72 -189 -11
-300 -31 -367 -65 -52 -27 -53 -26 -61 34 -5 41 2 45 175 100 194 62 469 112
661 120 30 2 37 -1 37 -17z m-1149 -161 c37 -20 18 -80 -25 -80 -24 0 -86 35
-86 49 0 34 69 53 111 31z m500 -60 c23 -13 25 -48 3 -57 -19 -7 -94 14 -94
27 0 12 41 40 58 40 7 0 22 -5 33 -10z"/>
<path d="M12077 13895 c-64 -22 -148 -83 -229 -167 -43 -43 -78 -83 -78 -88 0
-17 88 -11 142 11 39 15 58 18 73 11 21 -10 22 -8 21 33 -1 54 26 86 131 151
40 25 71 50 68 55 -9 13 -84 10 -128 -6z"/>
<path d="M11680 13535 c-34 -41 26 -66 91 -38 l44 20 -32 16 c-40 21 -87 22
-103 2z"/>
<path d="M5622 13234 c-22 -15 -52 -63 -52 -84 0 -5 13 -10 28 -10 17 0 38
-10 51 -24 30 -31 85 -58 104 -50 15 5 38 46 51 90 6 21 -27 60 -71 83 -31 16
-85 14 -111 -5z"/>
<path d="M9446 13161 c-6 -9 -23 -12 -59 -8 -70 6 -87 -12 -87 -95 0 -66 6
-81 30 -86 8 -2 34 -13 57 -24 53 -28 69 -16 78 55 7 64 -6 178 -19 158z"/>
<path d="M11651 13149 c-1 -9 -8 -22 -17 -30 -20 -16 -13 -59 17 -100 30 -42
42 -37 35 14 -8 51 -34 138 -35 116z"/>
<path d="M5085 13098 c-22 -17 -55 -72 -55 -92 0 -2 10 -6 23 -10 12 -3 31
-19 42 -36 22 -34 45 -44 75 -35 23 7 25 34 10 116 -15 78 -45 96 -95 57z"/>
<path d="M9187 13074 c-3 -3 -38 -12 -78 -20 -83 -16 -109 -34 -109 -78 1 -26
2 -28 11 -13 17 29 60 20 114 -23 28 -22 58 -40 67 -40 24 0 32 38 23 115 -6
60 -13 74 -28 59z"/>
<path d="M8346 13053 c-4 -5 -24 -8 -44 -8 l-37 0 -3 -50 c-2 -27 -1 -64 2
-80 l6 -31 163 -21 c211 -29 275 -17 372 68 20 18 39 28 43 24 4 -3 7 -49 7
-100 0 -89 -2 -95 -27 -122 -41 -43 -37 -114 5 -97 40 15 52 161 26 335 l-12
82 -56 -6 c-31 -4 -114 -27 -186 -52 -131 -45 -198 -55 -236 -34 -17 9 -19 17
-13 55 6 44 4 51 -10 37z"/>
<path d="M6370 13031 l-35 -6 -3 -80 -3 -81 41 -1 c35 -2 42 2 50 23 16 42 10
156 -9 153 -3 -1 -22 -4 -41 -8z"/>
<path d="M6523 12983 c-23 -25 -59 -92 -51 -97 12 -8 182 -55 186 -52 8 9 -17
129 -33 152 -22 34 -68 32 -102 -3z"/>
<path d="M7865 12911 c-44 -21 -87 -47 -96 -57 -19 -21 -72 -115 -67 -118 2
-1 37 0 78 3 91 7 125 26 150 84 21 49 36 127 23 126 -4 0 -44 -18 -88 -38z"/>
<path d="M9750 12848 c0 -22 -19 -33 -33 -19 -20 20 -27 12 -27 -28 0 -74 11
-102 46 -118 39 -19 64 -12 64 19 -1 27 -49 171 -50 146z"/>
<path d="M8513 12710 c-30 -12 -51 -57 -59 -124 -6 -52 -5 -56 14 -56 24 0 69
43 84 80 5 14 13 44 17 68 8 39 7 42 -13 41 -11 0 -31 -4 -43 -9z"/>
<path d="M9420 12630 c0 -12 -5 -31 -11 -43 -10 -21 -9 -21 10 2 23 25 27 46
11 56 -5 3 -10 -3 -10 -15z"/>
<path d="M10180 11409 c-121 -36 -180 -181 -167 -409 7 -120 24 -185 63 -242
65 -93 207 -113 301 -42 76 57 117 239 95 423 -17 143 -53 215 -125 253 -47
23 -120 31 -167 17z"/>
<path d="M9060 11235 l0 -175 113 0 c133 0 180 11 223 54 59 59 54 178 -10
242 -42 42 -89 54 -218 54 l-108 0 0 -175z"/>
<path d="M13270 11245 l0 -167 123 3 c139 4 176 18 208 79 24 44 25 124 1 170
-30 60 -69 74 -209 79 l-123 3 0 -167z"/>
<path d="M9304 9681 c-83 -38 -119 -138 -112 -308 4 -87 9 -110 34 -160 46
-93 130 -125 221 -84 59 27 91 86 105 194 15 111 -1 231 -38 295 -44 74 -128
100 -210 63z"/>
<path d="M6800 7965 l0 -167 123 3 c139 4 176 18 208 79 24 44 25 124 1 170
-30 60 -69 74 -209 79 l-123 3 0 -167z"/>
<path d="M8806 8000 c-7 -18 -126 -373 -126 -377 0 -2 59 -3 130 -3 72 0 130
3 130 8 0 26 -129 384 -134 372z"/>
<path d="M12582 6255 c-39 -32 -62 -99 -69 -199 -6 -75 -5 -79 13 -70 10 5 54
9 97 9 95 0 107 11 107 96 0 111 -10 147 -45 169 -43 26 -67 25 -103 -5z"/>
<path d="M9060 5805 c-70 -20 -120 -44 -190 -90 -76 -51 -122 -95 -98 -95 47
0 155 46 240 103 51 34 107 70 123 79 l30 17 -30 0 c-16 -1 -50 -7 -75 -14z"/>
<path d="M8332 5370 c2 -9 -9 -16 -27 -20 -39 -7 -42 -30 -10 -60 20 -19 30
-22 43 -14 23 15 28 77 7 94 -13 11 -16 11 -13 0z"/>
<path d="M8367 5235 c-60 -16 -61 -18 -45 -45 14 -23 86 -65 96 -56 3 4 -4 20
-16 36 -27 36 -27 36 -2 43 11 3 20 12 20 21 0 9 -1 16 -2 15 -2 0 -25 -7 -51
-14z"/>
<path d="M6600 4639 c-49 -8 -80 -28 -80 -50 0 -10 58 -29 89 -29 34 0 48 10
60 43 20 52 22 51 -69 36z"/>
<path d="M6412 4566 c-38 -35 -65 -96 -49 -113 13 -12 67 40 82 81 25 66 15
75 -33 32z"/>
<path d="M16010 15809 c-46 -27 -70 -58 -69 -89 1 -16 3 -19 6 -8 3 11 21 22
46 28 59 15 72 25 69 51 -4 37 -15 40 -52 18z"/>
<path d="M15334 15411 c-62 -61 -121 -109 -155 -126 -68 -34 -65 -30 -45 -60
20 -30 30 -31 64 -4 l27 20 16 -20 c17 -21 17 -21 24 8 4 20 32 53 85 101 58
52 82 82 90 108 12 44 13 72 3 72 -5 0 -53 -45 -109 -99z"/>
<path d="M15601 15399 c-17 -7 -21 -14 -16 -27 17 -45 16 -74 -5 -126 -13 -30
-20 -62 -16 -71 6 -16 8 -17 24 -1 10 9 29 16 41 16 19 0 21 3 14 23 -4 12 -7
55 -5 95 3 86 -3 103 -37 91z"/>
<path d="M16572 15043 c-11 -16 -25 -46 -30 -68 -9 -33 -42 -215 -42 -229 0
-3 15 -9 34 -16 33 -11 77 -49 60 -52 -5 0 -27 -2 -49 -2 -36 -1 -40 -4 -40
-26 0 -32 17 -34 152 -25 l101 7 -13 33 c-17 38 -11 47 23 38 30 -7 31 -10
-54 110 -62 87 -104 176 -104 222 0 36 -16 39 -38 8z"/>
<path d="M14103 14955 c-13 -9 -23 -19 -23 -23 0 -4 34 -8 76 -10 73 -2 75 -2
72 20 -3 20 -10 23 -53 26 -33 2 -57 -3 -72 -13z"/>
<path d="M15830 14817 c0 -43 23 -72 73 -92 20 -8 37 -14 37 -11 0 2 -7 20
-15 39 -17 41 -35 56 -35 30 -1 -11 -8 -4 -20 19 -27 51 -40 56 -40 15z"/>
<path d="M16115 14841 c-16 -4 -48 -17 -70 -29 -88 -47 -92 -61 -30 -107 50
-39 113 -43 203 -16 90 27 161 27 213 0 l41 -20 -7 43 c-4 24 -15 59 -24 78
-13 28 -22 35 -46 35 -26 0 -30 -4 -40 -43 l-10 -43 -34 35 c-55 57 -132 83
-196 67z"/>
<path d="M16842 14744 c-31 -22 -26 -54 14 -88 49 -40 61 -24 34 45 -12 30
-23 55 -24 56 -1 2 -12 -4 -24 -13z"/>
<path d="M17092 14558 c-24 -24 -13 -55 28 -82 68 -45 95 -30 59 33 -12 21
-32 44 -46 50 -29 13 -26 14 -41 -1z"/>
<path d="M18039 14274 c-6 -78 11 -152 42 -180 19 -17 20 -17 13 42 -8 82 -21
129 -39 144 -12 10 -15 9 -16 -6z"/>
<path d="M15495 14026 c-58 -21 -142 -65 -230 -120 l-40 -25 60 -1 c188 0 305
55 305 145 0 31 -15 32 -95 1z"/>
<path d="M15846 13978 c-9 -12 -16 -28 -16 -34 0 -18 103 -34 118 -19 2 2 -3
17 -12 33 -24 47 -65 56 -90 20z"/>
<path d="M2537 11665 c-11 -76 -8 -122 7 -135 23 -18 67 8 94 58 23 41 23 44
7 68 -14 22 -22 25 -52 21 -28 -5 -35 -2 -42 15 -6 17 -9 12 -14 -27z"/>
<path d="M18281 11219 c-73 -21 -101 -42 -101 -76 0 -68 108 -12 164 85 4 6 6
11 4 11 -2 -1 -32 -10 -67 -20z"/>
<path d="M17651 9287 c-49 -25 -34 -34 70 -41 88 -5 107 -4 137 12 20 10 37
23 39 28 5 15 -218 16 -246 1z"/>
<path d="M2349 8557 c-42 -28 -65 -67 -55 -93 8 -18 8 -18 16 3 6 15 23 25 52
33 61 15 73 23 76 54 3 23 0 26 -26 26 -16 0 -44 -10 -63 -23z"/>
<path d="M2026 8466 c4 -9 -1 -18 -10 -22 -21 -8 -20 -20 4 -44 40 -40 160
-19 143 26 -5 13 -9 12 -27 -5 -36 -33 -58 -30 -78 11 -17 36 -43 64 -32 34z"/>
<path d="M1706 8258 c9 -29 9 -37 0 -65 -6 -18 -3 -23 19 -29 28 -7 65 18 65
43 0 20 -55 73 -75 73 -12 0 -15 -5 -9 -22z"/>
<path d="M2430 7365 c-9 -25 1 -103 17 -128 3 -6 14 9 23 33 13 34 15 52 7 82
-11 44 -33 50 -47 13z"/>
<path d="M2067 7074 c-15 -15 -7 -44 13 -44 11 0 20 -7 20 -15 0 -19 -31 -35
-72 -35 -42 0 -55 -9 -63 -41 -6 -23 -3 -27 20 -33 33 -8 89 18 114 53 33 47
53 93 44 102 -12 12 -67 22 -76 13z"/>
<path d="M15475 6335 c-71 -11 -122 -32 -143 -58 -19 -22 -52 -127 -52 -163
l0 -32 58 38 c31 21 80 46 107 55 58 20 106 70 111 116 6 52 -2 57 -81 44z"/>
<path d="M2786 5873 c-4 -11 -18 -28 -31 -37 -24 -16 -35 -63 -19 -79 25 -25
84 77 67 116 l-10 22 -7 -22z"/>
<path d="M342 5775 c-56 -11 -104 -37 -91 -49 8 -7 139 21 154 34 16 13 20 31
8 29 -5 -1 -37 -7 -71 -14z"/>
<path d="M1413 5573 c-43 -6 -42 -24 4 -62 31 -26 39 -28 46 -16 5 9 22 15 42
15 29 0 35 4 35 21 0 42 -35 53 -127 42z"/>
<path d="M2569 5515 c17 -20 31 -42 31 -49 0 -25 -37 -47 -99 -57 -69 -13
-106 -37 -113 -74 -5 -22 -2 -25 22 -25 48 0 183 40 264 77 43 21 73 39 67 41
-7 2 -8 20 -4 49 6 44 5 45 -15 34 -31 -17 -58 -13 -112 14 -67 34 -78 31 -41
-10z"/>
<path d="M1600 5465 c-41 -25 -79 -45 -85 -45 -5 0 -3 -5 5 -10 30 -19 81 -10
163 31 97 49 95 48 77 59 -33 21 -85 10 -160 -35z"/>
<path d="M2130 5398 c-11 -24 -20 -50 -20 -58 0 -8 -8 -28 -18 -45 -18 -29
-18 -31 -1 -59 l17 -28 26 39 c35 52 47 98 40 145 -9 54 -21 56 -44 6z"/>
<path d="M530 5420 c-8 -5 -10 -10 -5 -10 6 0 17 5 25 10 8 5 11 10 5 10 -5 0
-17 -5 -25 -10z"/>
<path d="M2218 5313 c-18 -15 -34 -28 -35 -28 -2 -1 5 -20 13 -43 l17 -41 -32
-37 c-22 -25 -29 -40 -22 -47 16 -16 117 -12 146 7 30 20 33 46 4 46 -34 0
-60 20 -75 57 -9 19 -14 37 -11 39 2 2 21 7 42 12 44 9 53 23 30 46 -23 22
-38 20 -77 -11z"/>
<path d="M2264 4756 c-142 -53 -244 -176 -244 -295 0 -23 2 -24 63 -18 34 3
109 17 167 31 58 14 115 26 128 26 21 0 23 3 17 30 -5 21 -2 39 10 56 23 35
16 78 -13 82 -32 5 -55 44 -47 82 8 37 2 37 -81 6z"/>
<path d="M1893 4505 c-37 -16 -53 -41 -53 -85 0 -28 3 -31 27 -28 37 4 65 46
61 91 l-3 35 -32 -13z"/>
<path d="M1543 4325 c-62 -12 -93 -28 -93 -47 0 -13 106 -1 130 14 19 12 44
49 33 47 -5 -1 -36 -7 -70 -14z"/>
<path d="M5461 4246 c-6 -7 -31 -21 -55 -30 -49 -19 -65 -41 -35 -49 13 -3 19
-14 19 -31 0 -24 3 -26 28 -20 15 4 36 11 46 17 19 9 19 10 1 23 -10 8 -26 14
-34 14 -9 0 -1 9 17 20 22 14 32 27 32 45 0 29 -3 30 -19 11z"/>
<path d="M1932 4218 c-59 -33 -204 -175 -186 -182 20 -8 44 -67 44 -107 0 -30
1 -31 32 -25 17 3 47 18 66 32 30 24 33 30 26 58 -4 17 -7 46 -8 65 -1 47 31
56 105 30 29 -11 59 -19 65 -19 22 0 2 44 -37 82 -21 20 -41 48 -45 62 -8 32
-10 32 -62 4z"/>
<path d="M5238 4105 c-3 -3 -62 -17 -131 -30 -69 -13 -144 -33 -165 -44 -37
-19 -87 -69 -79 -78 2 -2 21 4 41 12 21 9 85 20 143 25 118 11 156 27 186 78
17 29 20 52 5 37z"/>
<path d="M1487 4075 c-86 -35 -124 -62 -136 -95 -9 -27 -8 -30 15 -36 84 -21
190 51 182 124 l-3 30 -58 -23z"/>
<path d="M1555 3905 c-5 -2 -31 -6 -57 -10 -45 -6 -78 -25 -78 -45 0 -6 11 -5
26 0 14 6 40 10 57 10 36 0 78 19 85 38 3 11 -11 15 -33 7z"/>
</g>
</svg>
